<svg width="1317" height="800"><g transform="translate(1,1)"><g class="links"><path class="link" d="M15,419.38802287941166C224.16666666666666,419.38802287941166 224.16666666666666,611.0546895460784 433.3333333333333,611.0546895460784" style="opacity: 1; stroke: rgb(159, 159, 163); stroke-width: 287.224;"></path><path class="link" d="M448.3333333333333,682.2856286076453C657.5,682.2856286076453 657.5,701.452295274312 866.6666666666666,701.452295274312" style="opacity: 1; stroke: rgb(51, 170, 0); stroke-width: 144.762;"></path><path class="link" d="M448.3333333333333,538.673651487057C657.5,538.673651487057 657.5,538.673651487057 866.6666666666666,538.673651487057" style="opacity: 1; stroke: rgb(237, 189, 0); stroke-width: 142.462;"></path><path class="link" d="M15,85.41696784939816C224.16666666666666,85.41696784939816 224.16666666666666,123.75030118273149 433.3333333333333,123.75030118273149" style="opacity: 1; stroke: rgb(159, 159, 163); stroke-width: 138.41;"></path><path class="link" d="M881.6666666666666,696.358683752894C1090.8333333333333,696.358683752894 1090.8333333333333,696.3586837528939 1300,696.3586837528939" style="opacity: 1; stroke: rgb(51, 170, 0); stroke-width: 134.575;"></path><path class="link" d="M881.6666666666666,553.2489445509497C1090.8333333333333,553.2489445509497 1090.8333333333333,562.8322778842828 1300,562.8322778842828" style="opacity: 1; stroke: rgb(237, 189, 0); stroke-width: 113.311;"></path><path class="link" d="M448.3333333333333,156.4064775239113C657.5,156.4064775239113 657.5,175.57314419057795 866.6666666666666,175.57314419057795" style="opacity: 1; stroke: rgb(51, 170, 0); stroke-width: 73.0976;"></path><path class="link" d="M15,188.8705843992583C224.16666666666666,188.8705843992583 224.16666666666666,265.537251065925 433.3333333333333,265.537251065925" style="opacity: 1; stroke: rgb(159, 159, 163); stroke-width: 68.4972;"></path><path class="link" d="M881.6666666666666,172.65145039127566C1090.8333333333333,172.65145039127566 1090.8333333333333,172.65145039127563 1300,172.65145039127563" style="opacity: 1; stroke: rgb(51, 170, 0); stroke-width: 67.2543;"></path><path class="link" d="M448.3333333333333,87.20148208093697C657.5,87.20148208093697 657.5,87.20148208093697 866.6666666666666,87.20148208093697" style="opacity: 1; stroke: rgb(237, 189, 0); stroke-width: 65.3124;"></path><path class="link" d="M881.6666666666666,94.32988413631269C1090.8333333333333,94.32988413631269 1090.8333333333333,103.913217469646 1300,103.913217469646" style="opacity: 1; stroke: rgb(237, 189, 0); stroke-width: 51.0555;"></path><path class="link" d="M448.3333333333333,277.5248213855453C657.5,277.5248213855453 657.5,296.691488052212 866.6666666666666,296.691488052212" style="opacity: 1; stroke: rgb(51, 170, 0); stroke-width: 44.5221;"></path><path class="link" d="M881.6666666666666,294.85132965628503C1090.8333333333333,294.85132965628503 1090.8333333333333,294.851329656285 1300,294.851329656285" style="opacity: 1; stroke: rgb(51, 170, 0); stroke-width: 40.8418;"></path><path class="link" d="M15,238.69862346396806C224.16666666666666,238.69862346396806 224.16666666666666,353.69862346396803 433.3333333333333,353.69862346396803" style="opacity: 1; stroke: rgb(159, 159, 163); stroke-width: 31.1588;"></path><path class="link" d="M881.6666666666666,482.01800548938263C1090.8333333333333,482.01800548938263 1090.8333333333333,482.0180054893825 1300,482.0180054893825" style="opacity: 1; stroke: rgb(237, 189, 0); stroke-width: 29.1506;"></path><path class="link" d="M448.3333333333333,243.2762002786595C657.5,243.2762002786595 657.5,243.2762002786595 866.6666666666666,243.2762002786595" style="opacity: 1; stroke: rgb(237, 189, 0); stroke-width: 23.9751;"></path><path class="link" d="M15,265.0270435903077C224.16666666666666,265.0270435903077 224.16666666666666,418.360376923641 433.3333333333333,418.360376923641" style="opacity: 1; stroke: rgb(159, 159, 163); stroke-width: 21.498;"></path><path class="link" d="M881.6666666666666,246.46772499659534C1090.8333333333333,246.46772499659534 1090.8333333333333,256.0510583299286 1300,256.0510583299286" style="opacity: 1; stroke: rgb(237, 189, 0); stroke-width: 17.5921;"></path><path class="link" d="M448.3333333333333,346.69186649486153C657.5,346.69186649486153 657.5,346.69186649486153 866.6666666666666,346.69186649486153" style="opacity: 1; stroke: rgb(237, 189, 0); stroke-width: 17.1453;"></path><path class="link" d="M15,8.105986203211918C224.16666666666666,8.105986203211918 224.16666666666666,8.105986203211918 433.3333333333333,8.105986203211918" style="opacity: 1; stroke: rgb(159, 159, 163); stroke-width: 16.212;"></path><path class="link" d="M881.6666666666666,61.673707795132884C1090.8333333333333,61.673707795132884 1090.8333333333333,61.67370779513287 1300,61.67370779513287" style="opacity: 1; stroke: rgb(237, 189, 0); stroke-width: 14.2568;"></path><path class="link" d="M448.3333333333333,362.2712844526855C657.5,362.2712844526855 657.5,381.43795111935214 866.6666666666666,381.43795111935214" style="opacity: 1; stroke: rgb(51, 170, 0); stroke-width: 14.0135;"></path><path class="link" d="M881.6666666666666,348.5585656368836C1090.8333333333333,348.5585656368836 1090.8333333333333,358.1418989702169 1300,358.1418989702169" style="opacity: 1; stroke: rgb(237, 189, 0); stroke-width: 13.4119;"></path><path class="link" d="M881.6666666666666,380.82309050148234C1090.8333333333333,380.82309050148234 1090.8333333333333,380.82309050148234 1300,380.82309050148234" style="opacity: 1; stroke: rgb(51, 170, 0); stroke-width: 12.7838;"></path><path class="link" d="M448.3333333333333,423.1841575264255C657.5,423.1841575264255 657.5,442.3508241930922 866.6666666666666,442.3508241930922" style="opacity: 1; stroke: rgb(51, 170, 0); stroke-width: 11.8504;"></path><path class="link" d="M881.6666666666666,442.0102179515384C1090.8333333333333,442.0102179515384 1090.8333333333333,442.0102179515383 1300,442.0102179515383" style="opacity: 1; stroke: rgb(51, 170, 0); stroke-width: 11.1692;"></path><path class="link" d="M448.3333333333333,10.782178101134543C657.5,10.782178101134543 657.5,29.94884476780121 866.6666666666666,29.94884476780121" style="opacity: 1; stroke: rgb(51, 170, 0); stroke-width: 10.8596;"></path><path class="link" d="M881.6666666666666,768.7397218119153C1090.8333333333333,768.7397218119153 1090.8333333333333,778.3230551452485 1300,778.3230551452485" style="opacity: 1; stroke: rgb(51, 170, 0); stroke-width: 10.1872;"></path><path class="link" d="M881.6666666666666,29.546310118692187C1090.8333333333333,29.546310118692187 1090.8333333333333,29.546310118692176 1300,29.546310118692176" style="opacity: 1; stroke: rgb(51, 170, 0); stroke-width: 10.0545;"></path><path class="link" d="M448.3333333333333,412.4351553579098C657.5,412.4351553579098 657.5,412.4351553579098 866.6666666666666,412.4351553579098" style="opacity: 1; stroke: rgb(237, 189, 0); stroke-width: 9.64756;"></path><path class="link" d="M881.6666666666666,413.3065765213656C1090.8333333333333,413.3065765213656 1090.8333333333333,422.8899098546989 1300,422.8899098546989" style="opacity: 1; stroke: rgb(237, 189, 0); stroke-width: 7.90472;"></path><path class="link" d="M881.6666666666666,234.480154676975C1090.8333333333333,234.480154676975 1090.8333333333333,234.48015467697493 1300,234.48015467697493" style="opacity: 1; stroke: rgb(237, 189, 0); stroke-width: 6.38305;"></path><path class="link" d="M881.6666666666666,209.2002694930702C1090.8333333333333,209.2002694930702 1090.8333333333333,218.78360282640347 1300,218.78360282640347" style="opacity: 1; stroke: rgb(51, 170, 0); stroke-width: 5.84339;"></path><path class="link" d="M448.3333333333333,2.676191897922625C657.5,2.676191897922625 657.5,2.676191897922625 866.6666666666666,2.676191897922625" style="opacity: 1; stroke: rgb(237, 189, 0); stroke-width: 5.35238;"></path><path class="link" d="M881.6666666666666,3.355192652188944C1090.8333333333333,3.355192652188944 1090.8333333333333,12.938525985522272 1300,12.938525985522272" style="opacity: 1; stroke: rgb(237, 189, 0); stroke-width: 3.99438;"></path><path class="link" d="M881.6666666666666,339.9859046481662C1090.8333333333333,339.9859046481662 1090.8333333333333,339.9859046481662 1300,339.9859046481662" style="opacity: 1; stroke: rgb(237, 189, 0); stroke-width: 3.7334;"></path><path class="link" d="M881.6666666666666,317.1123804435505C1090.8333333333333,317.1123804435505 1090.8333333333333,326.6957137768838 1300,326.6957137768838" style="opacity: 1; stroke: rgb(51, 170, 0); stroke-width: 3.68032;"></path><path class="link" d="M881.6666666666666,408.48279591858113C1090.8333333333333,408.48279591858113 1090.8333333333333,408.4827959185811 1300,408.4827959185811" style="opacity: 1; stroke: rgb(237, 189, 0); stroke-width: 1.74284;"></path><path class="link" d="M881.6666666666666,0.6790007542663189C1090.8333333333333,0.6790007542663189 1090.8333333333333,0.6790007542663189 1300,0.6790007542663189" style="opacity: 1; stroke: rgb(237, 189, 0); stroke-width: 1.358;"></path><path class="link" d="M881.6666666666666,387.82984747058885C1090.8333333333333,387.82984747058885 1090.8333333333333,397.41318080392216 1300,397.41318080392216" style="opacity: 1; stroke: rgb(51, 170, 0); stroke-width: 1.22972;"></path><path class="link" d="M881.6666666666666,34.976104423981475C1090.8333333333333,34.976104423981475 1090.8333333333333,44.5594377573148 1300,44.5594377573148" style="opacity: 1; stroke: rgb(51, 170, 0); stroke-width: 1;"></path><path class="link" d="M881.6666666666666,447.9354395172696C1090.8333333333333,447.9354395172696 1090.8333333333333,457.51877285060283 1300,457.51877285060283" style="opacity: 1; stroke: rgb(51, 170, 0); stroke-width: 1;"></path></g><g class="nodes"><g class="node" data-node-id="all" transform="translate(0,0)" style="opacity: 1;"><rect height="563" width="15" style="fill: rgb(159, 159, 163); stroke: rgb(77, 77, 79);"></rect><text dy=".35em" y="281.5" x="21" text-anchor="start"></text></g><g class="node" data-node-id="A" transform="translate(433.3333333333333,0)" style="opacity: 1;"><rect height="16.211972406423836" width="15" style="fill: rgb(159, 159, 163); stroke: rgb(77, 77, 79);"></rect><text dy=".35em" y="8.105986203211918" x="21" text-anchor="start">A</text></g><g class="node" data-node-id="A_frisked" transform="translate(866.6666666666666,0)" style="opacity: 1;"><rect height="5.35238379584525" width="15" style="fill: rgb(237, 189, 0); stroke: rgb(116, 92, 0);"></rect><text dy=".35em" y="2.676191897922625" x="-6" text-anchor="end">33 %</text></g><g class="node" data-node-id="A_frisked_arrested" transform="translate(1300,0)" style="opacity: 1;"><rect height="1.3580015085326378" width="15" style="fill: rgb(250, 151, 102); stroke: rgb(122, 73, 49);"></rect><text dy=".35em" y="0.6790007542663189" x="-6" text-anchor="end"></text></g><g class="node" data-node-id="A_frisked_not_arrested" transform="translate(1300,10.941334841865967)" style="opacity: 1;"><rect height="3.9943822873126122" width="15" style="fill: rgb(151, 186, 76); stroke: rgb(73, 91, 37);"></rect><text dy=".35em" y="1.9971911436563061" x="-6" text-anchor="end">75 %</text></g><g class="node" data-node-id="A_not_frisked" transform="translate(866.6666666666666,24.519050462511917)" style="opacity: 1;"><rect height="10.859588610578585" width="15" style="fill: rgb(51, 170, 0); stroke: rgb(24, 83, 0);"></rect><text dy=".35em" y="5.429794305289293" x="-6" text-anchor="end"></text></g><g class="node" data-node-id="A_not_frisked_arrested" transform="translate(1300,24.519050462511906)" style="opacity: 1;"><rect height="10.05451931236054" width="15" style="fill: rgb(250, 151, 102); stroke: rgb(122, 73, 49);"></rect><text dy=".35em" y="5.02725965618027" x="-6" text-anchor="end"></text></g><g class="node" data-node-id="A_not_frisked_not_arrested" transform="translate(1300,44.156903108205775)" style="opacity: 1;"><rect height="0.8050692982180458" width="15" style="fill: rgb(151, 186, 76); stroke: rgb(73, 91, 37);"></rect><text dy=".35em" y="0.4025346491090229" x="-6" text-anchor="end"></text></g><g class="node" data-node-id="Q" transform="translate(433.3333333333333,54.54530573975717)" style="opacity: 1;"><rect height="138.40999088594864" width="15" style="fill: rgb(159, 159, 163); stroke: rgb(77, 77, 79);"></rect><text dy=".35em" y="69.20499544297432" x="21" text-anchor="start">Q</text></g><g class="node" data-node-id="Q_frisked" transform="translate(866.6666666666666,54.54530573975717)" style="opacity: 1;"><rect height="65.3123526823596" width="15" style="fill: rgb(237, 189, 0); stroke: rgb(116, 92, 0);"></rect><text dy=".35em" y="32.6561763411798" x="-6" text-anchor="end">47 %</text></g><g class="node" data-node-id="Q_frisked_arrested" transform="translate(1300,54.54530573975715)" style="opacity: 1;"><rect height="14.256804110751439" width="15" style="fill: rgb(250, 151, 102); stroke: rgb(122, 73, 49);"></rect><text dy=".35em" y="7.1284020553757195" x="-6" text-anchor="end"></text></g><g class="node" data-node-id="Q_frisked_not_arrested" transform="translate(1300,78.38544318384191)" style="opacity: 1;"><rect height="51.05554857160816" width="15" style="fill: rgb(151, 186, 76); stroke: rgb(73, 91, 37);"></rect><text dy=".35em" y="25.52777428580408" x="-6" text-anchor="end">78 %</text></g><g class="node" data-node-id="Q_not_frisked" transform="translate(866.6666666666666,139.02432508878343)" style="opacity: 1;"><rect height="73.09763820358906" width="15" style="fill: rgb(51, 170, 0); stroke: rgb(24, 83, 0);"></rect><text dy=".35em" y="36.54881910179453" x="-6" text-anchor="end"></text></g><g class="node" data-node-id="Q_not_frisked_arrested" transform="translate(1300,139.0243250887834)" style="opacity: 1;"><rect height="67.25425060498445" width="15" style="fill: rgb(250, 151, 102); stroke: rgb(122, 73, 49);"></rect><text dy=".35em" y="33.627125302492225" x="-6" text-anchor="end"></text></g><g class="node" data-node-id="Q_not_frisked_not_arrested" transform="translate(1300,215.86190902710118)" style="opacity: 1;"><rect height="5.8433875986046075" width="15" style="fill: rgb(151, 186, 76); stroke: rgb(73, 91, 37);"></rect><text dy=".35em" y="2.9216937993023038" x="-6" text-anchor="end"></text></g><g class="node" data-node-id="W" transform="translate(433.3333333333333,231.28862995903916)" style="opacity: 1;"><rect height="68.49724221377164" width="15" style="fill: rgb(159, 159, 163); stroke: rgb(77, 77, 79);"></rect><text dy=".35em" y="34.24862110688582" x="21" text-anchor="start">W</text></g><g class="node" data-node-id="W_frisked" transform="translate(866.6666666666666,231.28862995903916)" style="opacity: 1;"><rect height="23.975140639240706" width="15" style="fill: rgb(237, 189, 0); stroke: rgb(116, 92, 0);"></rect><text dy=".35em" y="11.987570319620353" x="-6" text-anchor="end">35 %</text></g><g class="node" data-node-id="W_frisked_arrested" transform="translate(1300,231.2886299590391)" style="opacity: 1;"><rect height="6.383049435871649" width="15" style="fill: rgb(250, 151, 102); stroke: rgb(122, 73, 49);"></rect><text dy=".35em" y="3.1915247179358244" x="-6" text-anchor="end"></text></g><g class="node" data-node-id="W_frisked_not_arrested" transform="translate(1300,247.25501272824408)" style="opacity: 1;"><rect height="17.59209120336906" width="15" style="fill: rgb(151, 186, 76); stroke: rgb(73, 91, 37);"></rect><text dy=".35em" y="8.79604560168453" x="-6" text-anchor="end">73 %</text></g><g class="node" data-node-id="W_not_frisked" transform="translate(866.6666666666666,274.43043726494653)" style="opacity: 1;"><rect height="44.52210157453094" width="15" style="fill: rgb(51, 170, 0); stroke: rgb(24, 83, 0);"></rect><text dy=".35em" y="22.26105078726547" x="-6" text-anchor="end"></text></g><g class="node" data-node-id="W_not_frisked_arrested" transform="translate(1300,274.4304372649465)" style="opacity: 1;"><rect height="40.84178478267702" width="15" style="fill: rgb(250, 151, 102); stroke: rgb(122, 73, 49);"></rect><text dy=".35em" y="20.42089239133851" x="-6" text-anchor="end"></text></g><g class="node" data-node-id="W_not_frisked_not_arrested" transform="translate(1300,324.85555538095684)" style="opacity: 1;"><rect height="3.6803167918539237" width="15" style="fill: rgb(151, 186, 76); stroke: rgb(73, 91, 37);"></rect><text dy=".35em" y="1.8401583959269618" x="-6" text-anchor="end"></text></g><g class="node" data-node-id="P" transform="translate(433.3333333333333,338.1192055061441)" style="opacity: 1;"><rect height="31.158835915647884" width="15" style="fill: rgb(159, 159, 163); stroke: rgb(77, 77, 79);"></rect><text dy=".35em" y="15.579417957823942" x="21" text-anchor="start">P</text></g><g class="node" data-node-id="P_frisked" transform="translate(866.6666666666666,338.1192055061441)" style="opacity: 1;"><rect height="17.145321977434865" width="15" style="fill: rgb(237, 189, 0); stroke: rgb(116, 92, 0);"></rect><text dy=".35em" y="8.572660988717432" x="-6" text-anchor="end">55 %</text></g><g class="node" data-node-id="P_frisked_arrested" transform="translate(1300,338.1192055061441)" style="opacity: 1;"><rect height="3.733398284044125" width="15" style="fill: rgb(250, 151, 102); stroke: rgb(122, 73, 49);"></rect><text dy=".35em" y="1.8666991420220624" x="-6" text-anchor="end"></text></g><g class="node" data-node-id="P_frisked_not_arrested" transform="translate(1300,351.43593712352157)" style="opacity: 1;"><rect height="13.411923693390742" width="15" style="fill: rgb(151, 186, 76); stroke: rgb(73, 91, 37);"></rect><text dy=".35em" y="6.705961846695371" x="-6" text-anchor="end">78 %</text></g><g class="node" data-node-id="P_not_frisked" transform="translate(866.6666666666666,374.43119415024563)" style="opacity: 1;"><rect height="14.013513938213018" width="15" style="fill: rgb(51, 170, 0); stroke: rgb(24, 83, 0);"></rect><text dy=".35em" y="7.006756969106509" x="-6" text-anchor="end"></text></g><g class="node" data-node-id="P_not_frisked_arrested" transform="translate(1300,374.43119415024563)" style="opacity: 1;"><rect height="12.783792702473365" width="15" style="fill: rgb(250, 151, 102); stroke: rgb(122, 73, 49);"></rect><text dy=".35em" y="6.391896351236682" x="-6" text-anchor="end"></text></g><g class="node" data-node-id="P_not_frisked_not_arrested" transform="translate(1300,396.7983201860523)" style="opacity: 1;"><rect height="1.2297212357396525" width="15" style="fill: rgb(151, 186, 76); stroke: rgb(73, 91, 37);"></rect><text dy=".35em" y="0.6148606178698263" x="-6" text-anchor="end"></text></g><g class="node" data-node-id="Z" transform="translate(433.3333333333333,407.6113747551253)" style="opacity: 1;"><rect height="21.498004337031333" width="15" style="fill: rgb(159, 159, 163); stroke: rgb(77, 77, 79);"></rect><text dy=".35em" y="10.749002168515666" x="21" text-anchor="start">Z</text></g><g class="node" data-node-id="Z_frisked" transform="translate(866.6666666666666,407.6113747551253)" style="opacity: 1;"><rect height="9.647561205569" width="15" style="fill: rgb(237, 189, 0); stroke: rgb(116, 92, 0);"></rect><text dy=".35em" y="4.8237806027845" x="-6" text-anchor="end">45 %</text></g><g class="node" data-node-id="Z_frisked_arrested" transform="translate(1300,407.61137475512527)" style="opacity: 1;"><rect height="1.7428423269115938" width="15" style="fill: rgb(250, 151, 102); stroke: rgb(122, 73, 49);"></rect><text dy=".35em" y="0.8714211634557969" x="-6" text-anchor="end"></text></g><g class="node" data-node-id="Z_frisked_not_arrested" transform="translate(1300,418.9375504153702)" style="opacity: 1;"><rect height="7.904718878657406" width="15" style="fill: rgb(151, 186, 76); stroke: rgb(73, 91, 37);"></rect><text dy=".35em" y="3.952359439328703" x="-6" text-anchor="end">82 %</text></g><g class="node" data-node-id="Z_not_frisked" transform="translate(866.6666666666666,436.425602627361)" style="opacity: 1;"><rect height="11.850443131462335" width="15" style="fill: rgb(51, 170, 0); stroke: rgb(24, 83, 0);"></rect><text dy=".35em" y="5.925221565731167" x="-6" text-anchor="end"></text></g><g class="node" data-node-id="Z_not_frisked_arrested" transform="translate(1300,436.42560262736095)" style="opacity: 1;"><rect height="11.169230648354757" width="15" style="fill: rgb(250, 151, 102); stroke: rgb(122, 73, 49);"></rect><text dy=".35em" y="5.584615324177379" x="-6" text-anchor="end"></text></g><g class="node" data-node-id="Z_not_frisked_not_arrested" transform="translate(1300,457.178166609049)" style="opacity: 1;"><rect height="0.6812124831075772" width="15" style="fill: rgb(151, 186, 76); stroke: rgb(73, 91, 37);"></rect><text dy=".35em" y="0.3406062415537886" x="-6" text-anchor="end"></text></g><g class="node" data-node-id="B" transform="translate(433.3333333333333,467.44271242549)" style="opacity: 1;"><rect height="287.22395424117667" width="15" style="fill: rgb(159, 159, 163); stroke: rgb(77, 77, 79);"></rect><text dy=".35em" y="143.61197712058834" x="21" text-anchor="start">B</text></g><g class="node" data-node-id="B_frisked" transform="translate(866.6666666666666,467.44271242549)" style="opacity: 1;"><rect height="142.46187812313397" width="15" style="fill: rgb(237, 189, 0); stroke: rgb(116, 92, 0);"></rect><text dy=".35em" y="71.23093906156699" x="-6" text-anchor="end">50 %</text></g><g class="node" data-node-id="B_frisked_arrested" transform="translate(1300,467.4427124254899)" style="opacity: 1;"><rect height="29.150586127785285" width="15" style="fill: rgb(250, 151, 102); stroke: rgb(122, 73, 49);"></rect><text dy=".35em" y="14.575293063892643" x="-6" text-anchor="end"></text></g><g class="node" data-node-id="B_frisked_not_arrested" transform="translate(1300,506.1766318866085)" style="opacity: 1;"><rect height="113.3112919953487" width="15" style="fill: rgb(151, 186, 76); stroke: rgb(73, 91, 37);"></rect><text dy=".35em" y="56.65564599767435" x="-6" text-anchor="end">80 %</text></g><g class="node" data-node-id="B_not_frisked" transform="translate(866.6666666666666,629.0712572152906)" style="opacity: 1;"><rect height="144.76207611804267" width="15" style="fill: rgb(51, 170, 0); stroke: rgb(24, 83, 0);"></rect><text dy=".35em" y="72.38103805902134" x="-6" text-anchor="end"></text></g><g class="node" data-node-id="B_not_frisked_arrested" transform="translate(1300,629.0712572152905)" style="opacity: 1;"><rect height="134.57485307520665" width="15" style="fill: rgb(250, 151, 102); stroke: rgb(122, 73, 49);"></rect><text dy=".35em" y="67.28742653760332" x="-6" text-anchor="end"></text></g><g class="node" data-node-id="B_not_frisked_not_arrested" transform="translate(1300,773.2294436238305)" style="opacity: 1;"><rect height="10.187223042836042" width="15" style="fill: rgb(151, 186, 76); stroke: rgb(73, 91, 37);"></rect><text dy=".35em" y="5.093611521418021" x="-6" text-anchor="end"></text></g></g></g></svg>