<svg width="635" height="200"><g transform="translate(1,1)"><g class="links"><path class="link" d="M15,105.94999999999999C162,105.94999999999999 162,120.94999999999999 309,120.94999999999999" style="opacity: 1; stroke: rgb(245, 102, 43); stroke-width: 114.1;"></path><path class="link" d="M324,98.13C471,98.13 471,98.13 618,98.13" style="opacity: 1; stroke: rgb(245, 102, 43); stroke-width: 68.46;"></path><path class="link" d="M15,24.45C162,24.45 162,24.45 309,24.45" style="opacity: 1; stroke: rgb(237, 189, 0); stroke-width: 48.9;"></path><path class="link" d="M324,155.17999999999998C471,155.17999999999998 471,162.68 618,162.68" style="opacity: 1; stroke: rgb(245, 102, 43); stroke-width: 45.64;"></path><path class="link" d="M324,34.23C471,34.23 471,41.73 618,41.73" style="opacity: 1; stroke: rgb(237, 189, 0); stroke-width: 29.34;"></path><path class="link" d="M324,9.78C471,9.78 471,9.78 618,9.78" style="opacity: 1; stroke: rgb(237, 189, 0); stroke-width: 19.56;"></path></g><g class="nodes"><g class="node" data-node-id="final_score" transform="translate(0,0)" style="opacity: 1;"><rect height="163" width="15" style="fill: rgb(159, 159, 163); stroke: rgb(77, 77, 79);"></rect><text dy=".35em" y="81.5" x="21" text-anchor="start"></text></g><g class="node" data-node-id="group_a" transform="translate(309,0)" style="opacity: 1;"><rect height="48.9" width="15" style="fill: rgb(237, 189, 0); stroke: rgb(116, 92, 0);"></rect><text dy=".35em" y="24.45" x="21" text-anchor="start">X=0</text></g><g class="node" data-node-id="group_a_c" transform="translate(309,63.9)" style="opacity: 1;"><rect height="114.1" width="15" style="fill: rgb(245, 102, 43); stroke: rgb(120, 49, 21);"></rect><text dy=".35em" y="57.05" x="21" text-anchor="start">X=1</text></g><g class="node" data-node-id="outcome_a_x" transform="translate(618,0)" style="opacity: 1;"><rect height="19.56" width="15" style="fill: rgb(151, 186, 76); stroke: rgb(73, 91, 37);"></rect><text dy=".35em" y="9.78" x="-6" text-anchor="end">YES</text></g><g class="node" data-node-id="outcome_a_x_c" transform="translate(618,27.06)" style="opacity: 1;"><rect height="29.34" width="15" style="fill: rgb(250, 151, 102); stroke: rgb(122, 73, 49);"></rect><text dy=".35em" y="14.67" x="-6" text-anchor="end">NO</text></g><g class="node" data-node-id="outcome_a_c_x" transform="translate(618,63.900000000000006)" style="opacity: 1;"><rect height="68.46" width="15" style="fill: rgb(151, 186, 76); stroke: rgb(73, 91, 37);"></rect><text dy=".35em" y="34.23" x="-6" text-anchor="end">YES</text></g><g class="node" data-node-id="outcome_a_c_x_c" transform="translate(618,139.86)" style="opacity: 1;"><rect height="45.64000000000001" width="15" style="fill: rgb(250, 151, 102); stroke: rgb(122, 73, 49);"></rect><text dy=".35em" y="22.820000000000004" x="-6" text-anchor="end">NO</text></g></g></g></svg>